<svg xmlns="http://www.w3.org/2000/svg" viewBox="0 0 847.1 388.9"><path d="M626.4 53.9H575a2.8 2.8 0 0 0-2.8 2.8V231c0 1.6 1.3 2.8 2.8 2.8h51.3c1.6 0 2.8-1.3 2.8-2.8V56.8c0-1.6-1.2-2.9-2.8-2.9zm121.1 184.6c58.7 0 99.6-38.9 99.6-94.6s-41-94.6-99.6-94.6c-57.5 0-99.3 39.8-99.3 94.6s41.7 94.6 99.3 94.6zm0-137.6c27.3 0 42 19.8 42 43 0 22.8-14.7 43-42 43s-41.7-20.2-41.7-43c0-23.2 14.4-43 41.7-43zM467.3 49.3A71.2 71.2 0 0 0 417 69.7a3.8 3.8 0 0 1-5.5 0 70.4 70.4 0 0 0-50.4-20.3c-47.2 0-81.4 32.7-81.4 77.8v103.9c0 1.6 1.3 2.8 2.8 2.8H334c1.6 0 2.8-1.3 2.8-2.8V129.4c0-13.3 8.3-26.7 24.2-26.7 16.3 0 24.8 13.4 24.8 26.7v101.7c0 1.6 1.3 2.8 2.8 2.8H440c1.6 0 2.8-1.3 2.8-2.8V129.4c0-13.3 8.3-26.7 24.2-26.7 16.3 0 24.8 13.4 24.8 26.7v101.7c0 1.6 1.3 2.8 2.8 2.8h51.2c1.6 0 2.8-1.3 2.8-2.8v-104c.2-45.1-34.1-77.8-81.4-77.8zm-303 189.2c57.5 0 99.3-39.8 99.3-94.6s-41.7-94.6-99.3-94.6c-58.7 0-99.6 38.9-99.6 94.6-.1 55.7 40.9 94.6 99.6 94.6zm0-137.6c27.3 0 41.7 19.8 41.7 43 0 22.8-14.4 43-41.7 43s-42-20.2-42-43c0-23.2 14.7-43 42-43z" fill="#fff"></path><path d="M42.3 0A41 41 0 0 0 .2 45a41.6 41.6 0 0 0 45.5 37.4 41.5 41.5 0 0 0 37.9-44.8A41.1 41.1 0 0 0 42.3 0z" fill="#f96b6b"></path><path d="M89.5 300.3c-1.5.9-2.3 2.9-2.3 5.9v7.1h12.3v9.2H87.2v37.8h-11v-37.8h-9.6v-9.2h9.6v-6.8c0-6.6 1.7-11.1 5-13.6s7-3.7 10.9-3.7c3 0 5.5.3 7.4.9v9.3l-2.1-.3-2.2-.2a10 10 0 0 0-5.7 1.4zm27.9 57.9c-3.8-2.1-6.6-5.1-8.6-8.9s-3-8-3-12.6 1-8.8 3-12.6c2-3.8 4.9-6.7 8.6-8.9 3.8-2.1 8.2-3.2 13.2-3.2s9.4 1.1 13.2 3.2 6.6 5.1 8.6 8.9 3 8 3 12.6-1 8.8-3 12.6c-2 3.8-5 6.7-8.6 8.9a26.9 26.9 0 0 1-13.2 3.2c-5 0-9.4-1.1-13.2-3.2zm23.3-10.7c2.5-2.8 3.7-6.3 3.7-10.8 0-4.4-1.2-8-3.7-10.8s-5.8-4.1-10.1-4.1-7.7 1.4-10.1 4.1a15.4 15.4 0 0 0-3.7 10.8c0 4.4 1.2 8 3.7 10.8s5.8 4.1 10 4.1 7.8-1.3 10.2-4.1zm27.3-34.2h11v9.1c.8-3.2 2.4-5.6 4.7-7.2s4.9-2.5 7.8-2.5c1.8 0 3.3.1 4.3.4v10.1l-4.3-.2c-4 0-7 1.4-9.2 4.3s-3.3 6.9-3.3 12.2v20.8h-11v-47zm38.9 0h11v6.5c1-2.3 2.8-4.1 5-5.6 2.5-1.4 5-2.2 8-2.2 7.6 0 12.5 2.8 14.9 8.4 1-2.4 3-4.4 5.6-6s5.5-2.4 8.8-2.4c11.3 0 16.9 6.1 16.9 18.4v29.7h-11v-27.6c0-3.8-.7-6.6-2.2-8.5-1.5-1.8-3.7-2.7-6.5-2.7a9 9 0 0 0-7.3 3.1c-1.7 2-2.6 5.7-2.6 10.8v24.9h-11v-27.7c0-3.8-.7-6.6-2.1-8.4-1.4-1.8-3.6-2.7-6.4-2.7-3.2 0-5.6 1-7.4 3.1-1.8 2-2.7 5.7-2.7 10.8v24.9h-11v-46.8zm128 27.1h-35a11 11 0 0 0 3.7 8.5c2.3 2 5.4 3 9.5 3 2.7 0 4.9-.4 6.5-1.3 1.7-.9 3-2.2 3.9-4h11c-.6 4.4-3 7.9-7 10.7-4 2.8-8.8 4.2-14.5 4.2-7.4 0-13.2-2.2-17.5-6.6s-6.4-10.4-6.4-18c0-5 1-9.3 2.9-13s4.7-6.6 8.3-8.6c3.6-2 7.7-3 12.4-3 4.4 0 8.3.9 11.7 2.8 3.4 1.9 6 4.5 7.9 7.9s2.8 7.2 2.8 11.6a44 44 0 0 1-.2 5.8zm-10.5-8.4c-.1-3.6-1.1-6.4-3.2-8.4-2-1.9-5-2.9-8.7-2.9-3.8 0-6.8 1-9.1 3.1a10.8 10.8 0 0 0-3.4 8.2h24.4zm23.4-18.7h11v9.1a12 12 0 0 1 4.7-7.2c2.3-1.6 4.9-2.5 7.8-2.5 1.8 0 3.3.1 4.3.4v10.1l-4.3-.2c-4 0-7 1.4-9.2 4.3s-3.3 6.9-3.3 12.2v20.8h-11v-47zm38.9-23.6h11v70.5h-11v-70.5zm70 23.6v47.1c0 7.2-2 12.8-6.1 16.7-4 3.6-9.3 5.4-16 5.4-6.8 0-12.2-1.6-16-4.8-3.4-3-5.1-7-5.2-12.2h11c.4 2.7 1.3 4.7 2.8 6s4 2 7.4 2c3.5 0 6.2-1.1 8.3-3.4 2-2.3 3-5.8 3-10.5v-5.9c-1.5 2.6-3.5 4.5-6 5.8s-5.6 2-9.1 2c-5.6 0-10-1.8-12.8-5.4-3-3.6-4.5-8.3-4.5-14.2v-28.6h11v26.3c0 3.8.8 6.8 2.3 9 1.5 2.1 4.2 3.2 7.9 3.2s6.5-1.3 8.4-3.9 2.9-6 2.9-10.3v-24.3h10.7z" fill="#fff"></path><path d="M615.6 294.5c-6 0-11 4.3-11.5 10.5-.6 6.4 4.1 12 10.6 12.5h1.1a11.5 11.5 0 0 0 1-23h-1" fill="#fa6b6b"></path><path d="M794.5 347.5c-7.6 0-11.5-5.6-11.5-12s4-12 11.5-12c7.6 0 11.6 5.6 11.6 12s-4 12-11.6 12m0-38.2c-16 0-27.6 11-27.6 26.2s11.6 26.3 27.6 26.3c16.2 0 27.7-10.8 27.7-26.3 0-15.3-11.5-26.2-27.7-26.2M579 347.5c-7.5 0-11.5-5.6-11.5-12s4-12 11.5-12 11.7 5.6 11.7 12-4 12-11.7 12m0-38.2c-15.9 0-27.5 11-27.5 26.2s11.5 26.3 27.5 26.3c16.3 0 27.7-10.8 27.7-26.3 0-15.3-11.4-26.2-27.7-26.2m188.8 2.7a1 1 0 0 0-.8-1.2 24.5 24.5 0 0 0-29.4 22.7l-.1 25.8c0 .6.4 1 1 1H752c.5 0 1-.4 1-1v-22.8a11 11 0 0 1 4.7-9.2c2-1.5 4-1.7 5.7-1.3.4 0 1-.3 1-.8l3.4-13.2zm-91.9 27.5h-34.1c-.5 0-1 .5-1 1a9.4 9.4 0 0 0 3.1 6.3c2 1.7 4.8 2.6 8.2 2.6 4.5 0 7.4-1.3 8.8-4 .3-.2.5-.5.9-.5h13.4c.7 0 1.1.6 1 1.2-1 4.3-3.5 7.8-7.6 10.5-4.5 2.9-10 4.4-16.5 4.4-8.4 0-15-2.3-19.7-6.8s-7-10.9-7-19c0-5.2 1-9.7 3.2-13.7 2.1-3.9 5.2-6.9 9.2-9 4-2 8.6-3 13.9-3 5 0 9.5 1 13.3 2.8 3.9 2 7 4.8 9 8.2 2.2 3.6 3.3 7.6 3.3 12l-.3 6c-.2.5-.6 1-1.1 1zm-14.9-8.8c.6 0 1-.5 1-1.1-.2-2.8-1-5-2.7-6.5-1.8-1.8-4.4-2.6-7.8-2.6-3.4 0-6 .8-8 2.7a9.4 9.4 0 0 0-3 6.4c-.1.5.4 1 1 1H661zm55.7-17.7v25.4c0 4.7-3.6 9-8.4 9.4a9.2 9.2 0 0 1-10.2-9V313c0-.5-.5-1-1-1h-13.4a1 1 0 0 0-1 1l.1 25.8a24.7 24.7 0 0 0 49.3 0l.1-25.8c0-.5-.4-1-1-1h-13.5a1 1 0 0 0-1 1zm-170.8-4.3h-5.4a9.2 9.2 0 0 0-7.8 4.5 24 24 0 0 0-13.3-3.8c-5.6 0-10.3 1.1-14.5 3.4a23.2 23.2 0 0 0-9.6 9.4c-2.1 4-3.3 8.5-3.3 13.6s1 9.7 3.3 13.6c2.2 4 5.4 7.2 9.6 9.4 4 2.3 9 3.5 14.5 3.5 4.3 0 8.4-1.2 11.9-3v3.7a13 13 0 0 1-3.2 8.9c-2 2.4-5 3.5-8.5 3.5-3.7 0-6.5-1.2-8.7-3.5a11.2 11.2 0 0 1-2.6-5.3c-.1-.5-.4-.8-1-.8h-13.8c-.6 0-1.1.6-1 1.1a26 26 0 0 0 3 9.2c2 4 5.3 7.2 9.5 9.4 4 2.2 9 3.4 14.5 3.4s10.2-1 14.3-3.4c4.2-2.2 7.3-5.4 9.6-9.4 2-3.6 3-7.8 3.2-12.4v-54c.2-.5-.2-1-.7-1zM527.6 345c-2.1 2.4-5 3.5-8.7 3.5-3.7 0-6.6-1.2-8.8-3.5-2-2.4-3.2-5.5-3.2-9.4 0-3.8 1.1-7 3.2-9.3 2.1-2.4 5-3.5 8.8-3.5 3.6 0 6.6 1.2 8.7 3.5 2 2.4 3.1 5.5 3.1 9.3 0 3.9-1 7-3.1 9.4z" fill="#fff"></path></svg>