<svg xmlns="http://www.w3.org/2000/svg" x="0px" y="0px" viewBox="0 0 612 792" style="enable-background:new 0 0 612 792;">
<g id="Sep-2019---Karhoo-Logo" transform="matrix(0.237236,0,0,0.110631,26.36,19.0933)">
	<g id="Dark---White" transform="matrix(1.17414,0,0,1.49954,-129.436,-90.5639)">
		<g transform="matrix(4.21521,0,0,7.07761,157.583,-172.586)">
			<path fill="#FF0082" d="M446.7,312.7c-22.5,0-40.8,18.3-40.8,40.8c0,22.5,18.3,40.8,40.8,40.8c22.5,0,40.8-18.3,40.8-40.8     C487.5,331,469.3,312.8,446.7,312.7z M446.7,329.1c13.5,0,24.5,11,24.5,24.5s-11,24.5-24.5,24.5c-13.5,0-24.5-11-24.5-24.5     S433.2,329.1,446.7,329.1z"/>
		</g>
		<g transform="matrix(4.21521,0,0,7.07761,-174.154,-172.586)">
			<path fill="#FF0082" d="M429.1,312.7c-22.5,0-40.8,18.3-40.8,40.8c0,22.5,18.3,40.8,40.8,40.8c22.5,0,40.8-18.3,40.8-40.8     C469.9,331,451.6,312.8,429.1,312.7z M429.1,329.1c13.5,0,24.5,11,24.5,24.5s-11,24.5-24.5,24.5c-13.5,0-24.5-11-24.5-24.5     S415.6,329.1,429.1,329.1z"/>
		</g>
		<g transform="matrix(0.803298,0,0,1.34879,71.5965,-54.7436)">
			<path fill="#FFFFFF" d="M1568.8,1553.7c-7.1,0-12.8,5.8-12.8,12.8v152.1c0,3.5-2.9,6.4-6.4,6.4h-170.7c-3.5,0-6.4-2.9-6.4-6.4     v-152.1c0-7.1-5.8-12.8-12.9-12.8h-60c-3.4,0-6.7,1.4-9.1,3.8c-2.4,2.4-3.8,5.7-3.8,9.1v402.7c0,3.4,1.4,6.7,3.8,9.1     c2.4,2.4,5.7,3.8,9.1,3.8h60c3.4,0,6.7-1.4,9.1-3.8c2.4-2.4,3.8-5.7,3.8-9.1v-152.1c0-3.5,2.9-6.4,6.4-6.4h170.7     c3.5,0,6.4,2.9,6.4,6.4v152.1c0,3.4,1.4,6.7,3.8,9.1c2.4,2.4,5.7,3.8,9.1,3.8h60c3.4,0,6.7-1.4,9.1-3.8c2.4-2.4,3.8-5.7,3.8-9.1     v-402.7c0-3.4-1.4-6.7-3.8-9.1c-2.4-2.4-5.7-3.8-9.1-3.8H1568.8z"/>
		</g>
		<g transform="matrix(0.803298,0,0,1.34879,46.0787,-54.7436)">
			<path fill="#FFFFFF" d="M1085.5,1725.1h-129c-0.9,0-1.7-0.3-2.3-0.9c-0.6-0.6-0.9-1.4-0.9-2.3V1645c0-0.9,0.3-1.7,0.9-2.3     c0.6-0.6,1.4-0.9,2.3-0.9h129c23.6,0,42.8,16.8,42.8,40.4C1128.4,1705.9,1109.2,1725.1,1085.5,1725.1z M1124,1817.7     c-1-1.7-1.2-3.7-0.5-5.5c0.7-1.8,2.1-3.2,3.9-3.9c12.5-4.4,21.8-9.8,21.8-9.8c44.8-26.1,66.7-72.1,66.1-113.8     c0.6-63.6-51.7-131-131-131H880.5c-3.4,0-6.7,1.4-9.1,3.8c-2.4,2.4-3.8,5.7-3.8,9.1v402.7c0,3.4,1.4,6.7,3.8,9.1     c2.4,2.4,5.7,3.8,9.1,3.8h60c7.1,0,12.8-5.8,12.8-12.8v-145.7c0-7.1,5.8-12.8,12.8-12.8h41.2c9,0,17.4,4.7,22,12.5     c20.4,34,76.6,127.6,91.6,152.7c2.3,3.9,6.5,6.2,11,6.2h79.3c2.3,0,4.4-1.2,5.6-3.3c1.1-2,1.1-4.5-0.1-6.5     C1198.1,1941.2,1140.1,1844.6,1124,1817.7z"/>
		</g>
		<g transform="matrix(0.803298,0,0,1.34879,25.84,-54.7436)">
			<path fill="#FFFFFF" d="M546.4,1811.1c-1,0-2-0.5-2.6-1.4c-0.6-0.9-0.8-1.9-0.4-2.9c7.8-21.8,43.1-120.7,53.7-150.4     c0.5-1.3,1.7-2.1,3-2.1s2.6,0.9,3,2.1c10.6,29.7,45.9,128.6,53.7,150.4c0.4,1,0.2,2.1-0.4,2.9c-0.6,0.9-1.6,1.4-2.6,1.4H546.4z      M655.2,1562.2c-1.8-5.1-6.7-8.5-12.1-8.5h-85.9c-5.4,0-10.3,3.4-12.1,8.5c-19.6,54.7-127.3,356.4-146.9,411.3     c-0.7,2-0.4,4.2,0.8,5.9c1.2,1.7,3.2,2.7,5.2,2.7h67.5c5.4,0,10.3-3.4,12.1-8.5c5.8-16.3,18.5-51.9,24.4-68.2     c1.8-5.1,6.7-8.5,12.1-8.5h159.6c5.4,0,10.3,3.4,12.1,8.5c5.8,16.3,18.5,51.9,24.4,68.2c1.8,5.1,6.7,8.5,12.1,8.5H796     c2.1,0,4-1,5.2-2.7c1.2-1.7,1.5-3.9,0.8-5.9C782.4,1918.6,674.7,1617,655.2,1562.2z"/>
		</g>
		<g transform="matrix(0.803298,0,0,1.34879,15.6065,-54.7436)">
			<path fill="#FFFFFF" d="M339,1973.1c0.8,2,0.6,4.3-0.5,6.1c-1.2,1.8-3.2,2.9-5.4,2.9c-18.2,0-57.3,0-74.1,0c-4.9,0-9.4-2.8-11.5-7.2     c-16.8-33.5-49-89.7-107.5-147.8c-2.3-2.3-5.9-2.5-8.4-0.5c-18.6,14.1-35.9,25.1-42.7,29.4c-1.9,1.2-3.1,3.2-3.1,5.5     c0,15.9,0,80.1,0,107.8c0,7.1-5.8,12.8-12.8,12.8h-60c-3.4,0-6.7-1.4-9.1-3.8c-2.4-2.4-3.8-5.7-3.8-9.1v-402.7     c0-3.4,1.4-6.7,3.8-9.1s5.7-3.8,9.1-3.8h60c7.1,0,12.8,5.8,12.8,12.8v176c0,2.5,1.4,4.7,3.6,5.8c2.2,1.1,4.9,0.8,6.8-0.8     c81.3-64.9,126.2-137.2,151.3-186.8c2.2-4.4,6.6-7.1,11.5-7.1c18.5,0,64.2,0,79.1,0c1.1,0,2.1,0.5,2.7,1.4c0.6,0.9,0.7,2,0.3,3     c-41.4,99.8-100,167.8-136.9,205.2c-2.5,2.5-2.5,6.6,0,9.1C259.4,1827.9,305.1,1894.3,339,1973.1z"/>
		</g>
	</g>
</g>
</svg>